<mxfile host="app.diagrams.net" modified="2021-07-31T11:05:32.643Z" agent="5.0 (Macintosh; Intel Mac OS X 10_15_7) AppleWebKit/537.36 (KHTML, like Gecko) Chrome/92.0.4515.107 Safari/537.36" etag="R8mOnCugY1H7GsryHFwY" version="14.9.3" type="github">
  <diagram id="YI_6PaCTcCtAEVBKvHiB" name="Page-1">
    <mxGraphModel dx="946" dy="521" grid="1" gridSize="10" guides="1" tooltips="1" connect="1" arrows="1" fold="1" page="1" pageScale="1" pageWidth="827" pageHeight="1169" math="0" shadow="0">
      <root>
        <mxCell id="0" />
        <mxCell id="1" parent="0" />
        <mxCell id="5Ma9kp0W-FNyfPUBRZOU-1" value="&lt;b&gt;&lt;font style=&quot;font-size: 18px&quot;&gt;MYSQL 默认情况下一个节点的大小是 16K&lt;/font&gt;&lt;/b&gt;" style="text;html=1;align=center;verticalAlign=middle;resizable=0;points=[];autosize=1;strokeColor=none;" parent="1" vertex="1">
          <mxGeometry x="140" y="100" width="360" height="20" as="geometry" />
        </mxCell>
        <mxCell id="5Ma9kp0W-FNyfPUBRZOU-3" value="" style="shape=image;verticalLabelPosition=bottom;verticalAlign=top;aspect=fixed;imageAspect=0;image=data:image/png,iVBORw0KGgoAAAANSUhEUgAAAn4AAAESCAYAAABjDtjcAAAgAElEQVR4Ae2993cVyZYu+P6TN+a9t9b7YebNrOmenu711kz3mnn39e3bfU1dU7e8LzxVeFdA4Sl84YUTkgB5jwCBLDIgISEEEhJG3iAvvIc969sQ1OGgo2PzKM/JL9eKlXky42RGfDti55d7R+z4d8KNCBABIkAEiAARIAJEwBEI/DtH1JKVJAJEgAgQASJABIgAERASPzYCIkAEiAARIAJEgAg4BAESP4cImtUkAkSACBABIkAEiACJH9sAESACRIAIEAEiQAQcggCJn0MEzWoSASJABIgAESACRIDEj22ACBABIkAEiAARIAIOQYDEzyGCZjWJABEgAkSACBABIkDixzZABIgAESACRIAIEAGHIEDi5xBBs5pEgAgQASJABIgAESDxYxsgAkSACBABIkAEiIBDECDxc4igWU0iQASIABEgAkSACJD4sQ0QASJABIgAESACRMAhCJD4OUTQrCYRIAJEgAgQASJABEj82AaIABEgAkSACBABIuAQBEj8HCJoVpMIWIXAk2ePZejugPSMdDGFAANgCUy5EQEiQASsQIDEzwpUeU8i4CAEQFQqmosl50IKUwgwAJbAlBsRIAJEwAoESPysQJX3JAIOQgCWPpC+mMJtEle5TxKrDzMFgAGwA4bAEphyIwJEgAhYgQCJnxWo8p5EwEEIGOIH4lLRXiLNw41MAWAA7IAhiZ+DOg+rSgQmAAESvwkAnY8kAtGEgCF+sPSB9N2RUaYAMAB2wJDEL5p6B+tCBOyHAImf/WTCEhGBiEKAxC80RJfEL6KaPQtLBCIWARK/iBUdC04E7IEAiR+Jnz1aIktBBIiALwiQ+PmCEvMQASLgEQESPxI/j42DF4gAEbAdAiR+thMJC0QEIgsBEj8Sv8hqsSwtEXA2AiR+zpY/a08EgkaAxI/EL+hGxBsQASIQNgRI/MIGNR9EBKITARI/Er/obNmsFRGITgRI/KJTrqwVEQgbAiR+JH5ha2x8EBEgAkEjQOIXNIS8ARFwNgIkfiR+zu4BrD0RiCwESPwiS14sLRGwHQIkfiR+tmuULBARIAIeESDx8wgNLxABIuALApYRv5ejMvpi+K105+U4JCsM+W+/HPG9PH6u3sEAzr60NuYhAkQgWARI/IJFkP8nAg5HwCriB9I39KxfBp7e0oRjnPO0JJzV+UH6Rp4PvS5Tn+7HK4+ncno6T+Ln8I7E6hOBMCFA4hcmoPkYIhCtCISa+A0+7ZPWuzfk0kCtnO0okoKbJzXhuH6gVq8NPu1/QwCtz9+vz7w8cFEqOkuluPW0FLXmy9n2QqnurZSmkQbpf9L7pjyeiJ238yR+0dpDWC8iYC8ESPzsJQ+WhghEHAKhJn4gfaeu58qusi2yIHOGTD7ysSYc7y7boteQxxCpcOTPv35c9pRvk8VZ38v0xM9lRuIXMjd9qqw+tUSO1B5S8mfKE+iexC/imj4LTAQiEgESv4gUGwtNBOyDQKiIn3Gl1vVfkF1lm2Ve+lSZkfSlTDn6iSYcz0ufpoQQeYafD2iyKv/Q8wEZejYguD9I38LMmfJ9yjdapu+Sv9L91KOfytr8pWoJhNVv5MXQG0LqLwEk8bNPm2ZJiEA0I0DiF83SZd2IQBgQCBXxw/i5W4+71Y06P2OaEqv4mgP6G67V+Jr9eg7X8LvrYYcmHFuTv106H7TpsxZlfSezUyfJsYuH5Wx7kZR3FEtK/RElg4uzv5fcq+nSPNIYlMuXxC8MjZWPIAJEQEj82AiIABEICgFfiR8sdIas4djdIjbwtE9u3GmWnKtpalmblzFNCRasbkhlHcWCc7C6IU/D0CVNVuW/OnxFrt9uUuK36uRiWXd6uVzoPa8TTGCdrO6plOXH52mZQAIv9ddI76Pud+o1/HxQeh51acKxe73NbxK/oJoh/0wEiICPCJD4+QgUsxEBIjA2Ar4SP5C+893lmnBsCI/Zdz/slAu959SSturkItlSvFbq+i7I7RevQqhc7Lug53ANRAuWPiQcW5G/sqtUGofqpa6/Rk5cy5YzN09I692bYkK6oC6G+KXWH5X6gYvS+/hd4gfSV3urShOOTX3d9yR+Y7cvniUCRCC0CJD4hRZP3o0IOA6Bd4gfYu29HJXBZ/3Sfr9FyVNVT4WcvJYjsVV71V2KcXNw68K9awhQ272bSq7iLuyTrcXrBHtY3cx1HOPcttfXki8lCJJV+VHeK4OXpPXeTbk22qiu3JY716Vp5IqAFB6pPShz0ibrBJScq+lybfSq9D+59aa8xtJX03te4i7s14RjkL+xLH8kfo7rOqwwEZgQBEj8JgR2PpQIRA8CYxE/WMVA5GCRO3h+t/yQM0dnw0499qn8mDdfshpT5PJgnZI/Q+zgVk27fEwnb2ByB45xzvV6+uVE2V2+RdOu8i2iqWyLTgYJdX5Y8UA2QWBB6ED6KrvOKuFbkDldPj/0R/n4wO8EY/xK2gqk73HPW0TWWPpA+r6O+6smHMP6N5blj8QvevoEa0IE7IwAiZ+dpcOyEYEIQKBnuFOyqpIktmKPnG0r0rFu5Z0lkt2YKnvKtyrRm3bsM5mU8JFayDYXrZbjTZnvED9YzOC23Vm2SYld+pXEt4jfjdvNknElSWfYghjuOLtRk1X5YU0E8YN1Dqnjfqu6qWHpA/H7IvZP8tmh92RJziy1VOI6xiIaoupO/D6I+Y0syZ7l0fJH4hcBjZ1FJAJRgACJXxQIkVUgAhOJQPdQh6SfOyrbTq+VfRXb1RWLCRjfxH+gs3CX5MyWn0t+ksS6w1LYckrDo8B65u7qbbl7XU40Z6uFcHvpBjl6MVaaRxreECnMmj12MVZ2lG7UPAk1BwQJFkUr8mOmLly9GHsIEoc9yJ1x9aI+P+TMVosfLHkgu5gFbIifu6sXpA/kD9a/sSx/JH4T2Yr5bCLgHARI/Jwja9aUCIQEgRcvX8jjZ4/lzoNR6R3plnPXSmV73nqZnzRVlmbP1jFvX8W9rwQHZGd3+VY5eT3nHQufIUhm3/mgXePhJV48LOtPL1erH1bLgNsYCce41/rTPwryYMIFklX5sUIHJpdg0gZcvDXqou2U26/XBK7tq5JNhavViofA0ievZesKH6Y+Zu+r5Y/ELyTNkzchAkTACwIkfl4A4mUiQATeRgCkb/BOvzR0XpK82nTZkrtKvtj5B/nD1n8SBDRefXKJxFRul4yGJCnrKJIrg3VKiNwtfIYYmX3fk15dASO7MU0WZs2U5XnzpaqnXIMiIzAyJojgHK4hD0gZklX5MRavqrtC3dLbitfLvsodGj4GE1dA/hC+BeeX5c5V9zMmg7iuKGLq5avlj8Tv7XbGX0SACFiDAImfNbjyrkQgahB4/uKZPHh8X4bvDUrnYJtc6aiT4oZ8Sa1MkN2nNsqSYzPlw23/In/Z+StZmjNHEmoOqtvz5p1rgth8hgB52ytBetgpRa2n1YWKmH1JdXEaMBlBk3GMcz/kztH1cuF2RbIqP8YU1vfX6lhFkDtMUMG4Q1j/znWdleyraWqZBNE9WhsrFerqbfdYX2+Wv5qe85Jw7oDkXEgRTJjhRgSIABGwAgESPytQ5T2JQBQhANIHwnf+epkklR+WzTkrZF78ZJkb9638lLVMNueslOVJc2Rt3g9ysjlHrXYY6wbSN/pi2CMRcieCcOeC/CFeHyZvLMiYLrNSvxUsj4Y0K3WSupHhVoWlb+hZvyar8qP8CMh8rqtMNhet0ZU7EL5lbtoUXU4OS8rheHPhap3V266TO/o91teb5e/41Uw5cHYniV8U9R1WhQjYEQESPztKhWUiAhOIwLPnT+XuwzvSd7tXWvtvyMXWKjlVly3xJTGyRUnebJmfMEVWps7XcymV8bLv9DaJO7dPrg5d9kh83Imep9+Y5JHXnCU7z27WiRNYoxcJYVNACDGuD3nM/63Ob8LMYDwfyoCl20AAMZt3Q8FKSboUr2QXJBcuYFMuT3tPlr+NZ1bKxhMrJO3cEeka6pjAFsBHEwEiEM0IkPhFs3RZNyIQAAIgfc09DXKmPk/2F2yXNWmLZOGRabI08XvZnrdOkivipKypUBq76qV9oEUut9dKSkWcHK06JE3Dv8zC9UR8vJ2HpQ1k7lJ/rbqMMckCCa7U+oFavebqQrY6f//TWxpW5mJftU4+KW0vkNL2QqnoKtWYfAhDg/GJSvp8IH6eLH/v7/xnmZPwrcSV7FVcAxAd/0IEiAAR8IoAiZ9XiJiBCEQ3Ak+ePZHR+8PSPdwp13uvqks3uzpZ9p3ZpqQPY/iWJc6SrbmrJbMqUeraqjW/QeWdAM7i3erljfzhOpZqw5q+CKCMhGOc8/Rfy/O/dkUbFzMIHNzTnsrj7by75e8P2/5JPt/9B9mYtVytrPcf3ZNnz58ZmLknAkSACIQEARK/kMDImxCByETg5cuXMnJ/SOpaq5XUgdwtS5olPxz7TtakL1LyBxKI8X0ghSCHIIlPnz15U2GriJ/Onn29Tq+6UUH6xrOoYbat1flfjui4xVduXS/l8UKA3S1/8zOmC8jf5JgPVBYtfdcF5I8bESACRCCUCJD4hRJN3osI2BgBkDwzQxfhWOCmbey8JGevFqj7dvuJderOhVt3bfpiOVCwXQrq89TtC/evp80y4ueFOHmzqEXKdWP5QyDqj2L+VT76+TeyPnOp5Nakyc1bzUr+aPnz1Pp4nggQAX8RIPHzFzHmJwIRioAhfR2DbUr2MFkDEzQwUWN58myNx5dQuk8ncmBCByZ29N/u1YkemPDhaSPxC861bSx/RS2nZWnWHPl6z5+V/M2Pn6zkj5Y/Ty2P54kAEQgEARK/QFDjf4hABCDwywobt6V3tFuaexp1lY3jNWkSW7RLNmQt05AsCM2CkCzJFYfVpYvQLQjh4utG4hcc8TOWyfr+i7KreJMsSJgqX+56T6bs+1DlQsufry2R+YgAEfAFARI/X1BiHiIQgQiYFTYaO+slrzZDdp3cILMPfy3TD3wiK1Lmye78TRqEGcGYEZS5c6hNgzSD9ME66OtG4hca4tc4dFniKmNk58kNOpsaZBzkj5Y/X1si8xEBIuALAiR+vqDEPEQgAhAwrtwxV9jI36RkD6QP5A8kEGQQpBDj/UASA91I/EJD/MySbYllh6SsqUjdvCB9tPwF2jL5PyJABMZCgMRvLFR4jghEIALjrbABty7cu3DznrtWqm5fuH/vPLitpA9u4UA3Er/QEr+M88d0BjUmdsDNS8tfoC2T/yMCRGAsBEj8xkKF54hABCDg7wobmL2LiR3+unK9QUHiF1riZ9bqRSgXTOwA+aPlz1sr5HUiQAR8RYDEz1ekmI8I2AwB7ytsHNbZuwjZgtAtcOka0ofQLqHaSPysIX4I4QLyR8tfqFoq70MEiAAQIPFjOyACEYKA3ytstFZrcOZQkryxoDLEL65yn1S0lwjGqjH5jwGwA4bG4mewpuXPIME9ESACoUCAxC8UKPIeRMBiBMZcYSNxlmA5Nayli+XVxlphA2TR6s0Qv5jCbUpcEqsPC5P/GID0AUN34kfLn9UtmPcnAs5CgMTPWfJmbSMAAX9W2ADp21+wXc74sMKGVVUfujsgFc3FSlhAWpiCwwBYAlP3jZY/d0T4mwgQgUAQIPELBDX+hwhYiIAJy+LPCht9PqywYVWRnzx7rEQFlj+m4DEA6QOm7hstf+6I8DcRIAKBIEDiFwhq/A8RCCEC4VphI4RF5q0mEAFa/iYQfD6aCEQBAiR+USBEViGyEQjXChuRjRJLbxCg5c8gwT0RIAKBIEDiFwhq/A8RCAIB48rVFTaG2nS5NCybllqZoMuoYTk1K1bYCKLI/KsNEaDlz4ZCYZGIQAQgQOIXAUJiEaMLAdcVNpIrDuvKDPPiJ8vcuG/FyhU2ogtF1oaWP7YBIkAEAkGAxC8Q1PgfIuAHAp5W2Ego3SdbclfJ8uTZMj9hiqxMnS/xJTEadNmKFTb8KDKzRhACtPxFkLBYVCJgAwRI/GwgBBYhuhEYd4WNE+skuSIuLCtsRDfKzq0dLX/OlT1rTgQCQYDELxDU+B8iMA4Cdl1hY5wi81IUIEDLXxQIkVUgAmFAgMQvDCDzEc5BwM4rbDhHCs6sKS1/zpQ7a00E/EWAxM9fxJifCLxGYPwVNg7L9rx1sjTxe1l4ZJouqzbRK2xQcM5AgJY/Z8iZtSQCgSJA4hcocvyf4xEwYVnGXGEjabZsyVmpkzVO1WXLxdYqae2/IRO5wobjBeYQAGj5c4igWU0iECACJH4BAse/OQ8B/1bYWCFJ5Yfl/PUy6RxsE4Rw4UYEwokALX/hRJvPIgKRgwCJX+TIiiWdYAT8XmFjsE0QpBmkD9ZBbkQgnAjQ8hdOtPksIhA5CJD4RY6sWNIwI2BcuVxhI8zA83EhRYCWv5DCyZsRgYhHgMQv4kXICliFAFfYsApZ3jecCNDyF060+SwiYH8ESPzsLyOWMEwIPHn2WIbuDkjnUJvcvNWsEzIwMYMrbIRJAHyMpQh4svxlVydLQ2edtn30AW5EgAhENwIkftEtX9bODwRA+iqaSwTr5+4+tVHWpi/WUCwIybKdK2z4gSSz2hEBT5a/mQc/k/0FP2vbRx/gRgSIQHQjQOIX3fJl7cZBwH2FjbNXC+RQ0U4lfIuOTpf58ZPlh2Pfydbc1ZJZlSh1rdUycn9IEL+PGxGIVASM5Q+WPpC+D7b+s8w+/LWSP1j+cB0kkRsRIALRiQCJX3TKlbXygsBYK2yA5IHsgfTB2gcSCDJ4vfeqdA93yuj9YQFZ5EYEIhkBY/kDyYOlD6QP5A8kEGSwpe+6kr9IriPLTgSIgGcESPw8Y8MrUYLA+CtsxKkb16ywAcIHNy/cvXD70vUVJY2A1XgHATO0AeQPpG/Kvg9lc85Kya1J0zGutPy9AxlPEIGoQIDELyrEyEqMh4AJyzLmChvJs2VL7iqdwGFW2MDEDkzwwIuRg93HQ5bXIhkBM5kJlj9Y+kD6QP5g9Qb5o+UvkqXLshMBzwiQ+HnGhlciFIFfVtgYld6RbmnuaZRz10rleE2axBbtkg1Zy2Ru3LcyL36yvuxg3eMKGxEqbBY7aATMmD+QPZA+Wv6ChpQ3IAK2RoDEz9biYeECQcCssNHQeUnyatNl58mfdBzT9AOfyIqUebI7f5OkViZIcUO+XOmoU+seV9gIBGn+JxoQMGP+YOkG+aPlLxqkyjoQAc8IkPh5xoZXIgQB48rVFTYG25TMgdSB3GG83oqUuQLSh0Hsu05ukLzaDGnsrJfBO/0CksiNCBAB0QkdcO/S8sfWQASiGwESv+iWryNq57rCRlL5Ydmcs0LduHDn/pS1TN27cPPC3Qu3b+9ot9x5cFtJH9zC3IgAERAN4QK3Ly1/bA1EILoRIPGLbvlGZe2ePX8qdx/ekb7bvdLaf+PNChvxJTGyJWelLE+aLfMTpsjK1PmCcwjJgokdIIiwDnIjAkTAMwIc8+cZG14hAtGAAIlfNEjRYXUA6WvuaZAz9Xmyv2C7rElb9MsKG3nrJLkiTsqaCqWxq17aB1rUpWtIH4MvO6yxsLp+I8Axf35Dxj8QgYhCgMQvosTlzMK6r7CBGbgIP7HvzDYlfUuOzZRlibN+WWGjrVqDLTsTLdaaCIQGAVr+QoMj70IE7IYAiZ/dJMLyvIXAWCtsLEuapUuprUlfpOQPJBBk0HWFjadcYeMtHPmDCPiLAC1//iLG/EQgMhAg8YsMOTmilP6usHGgYLsU1Oep2xfuX25EgAiEHgFa/kKPKe9IBCYSARK/iUSfz34LAROWxdcVNjCxo/92r070wIQPbkSACIQeAVr+Qo8p70gEJhIBEr+JRN/hz/5lhY3bGmKFK2w4vEGw+rZGgJY/W4uHhSMCPiNA4uczVMwYagTMChsIpoygygiujCDLXGEj1EjzfkQgeARo+QseQ96BCNgBARI/O0jBIWUwrtwxV9jI36TLqXGFDYc0BlYzYhGg5S9iRceCEwFFgMSPDSFsCIy3wsYGrrARNjnwQUQgGARo+QsGPf6XCEw8AiR+Ey+DqC0BV9iIWtGyYkSAa/uyDRCBCEWAxC9CBRcJxfa+wsZhXU6tsfMSV9iIBIGyjETABQFa/lzA4CERiCAESPwiSFh2L6rfK2y0VsvI/SHhMmp2lyzLRwQ8I8Axf56x4RUiYEcESPzsKJUILNOYK2wkzhIsp4a1dLG82lgrbIAsciMCRCByEaDlL3Jlx5I7EwESP2fKPaha+7PCBkjf/oLtcoYrbASFOf9MBOyOAC1/dpcQy0cEXiFA4seW4DcCJiyLPyts9HGFDb9x5h+IQCQhQMtfJEmLZXUyAiR+Tpa+j3XnChs+AsVsRIAIcLYv2wARsDkCJH42F5AdiscVNuwgBZaBCEQGArT8RYacWErnIkDi51zZe6y5ceXqChtDbXKlo06KG/IltTJBdnOFDY+48QIRIAK/IMAxf79gwSMiYCcESPzsJA2blMV1hY3kisOyOWelzIufLHPjvhWusGETIbEYRMDmCNDyZ3MBsXiORYDEz7Gi/6XinlbYSCjdJ1tyV8ny5NkyP2GKrEydL/ElMRp0GRM7QBBhHeRGBIgAEfCEAC1/npDheSIwMQiQ+E0M7rZ66rgrbJxYJ8kVcVxhw1YSY2GIQOQgQMtf5MiKJXUGAiR+zpDzW7XkChtvwcEfRIAIhAEBWv7CADIfQQR8QIDEzweQoikLV9iIJmmyLkQgchCg5S9yZMWSRjcCJH5RLN/xV9g4LNvz1snSxO9l4ZFpuqwaV9iI4sbAqhEBmyBAy59NBMFiOBYBEr8oFr0JyzLmChtJs2VLzkqdrHGqLlsutlZJa/8N4QobUdwgWDUiYAMEaPmzgRBYBEcjQOIXReL3b4WNFZJUfljOXy+TztczdKMIClaFCBABmyNAy5/NBcTiRS0CJH5RJFq/V9gYbBMEaWZYlihqBKwKEYgQBGj5ixBBsZhRhwCJXwSL1LhyucJGBAuRRScCDkeAlj+HNwBWP+wIkPiFHfLQPZArbIQOS96JCBCBiUGAlr+JwZ1PdS4CJH4usn/y7LEM3R2QnpEuW6buoQ5pH2iVm7ea5WpXvY7Py61JkwMF22Vl6jyZefAz+XzH72VyzIeyPnPp6zF8Z+XGrSYdxxfuegFLYMqNCDgRAbvrk3DrA2/Pu957VcqaigTRBb7c9Z589PNvVI9lViXq5LP2gRbpGuqwpW72Vjc7XKc+dqIWGrvOJH4uuKBjVDQXS86FFFum9HNHBcuo7Tq5UZdPw9q5U/d9LJNjPpAZBz+TeXGTZFniLFmf8YPsOLFeDhbulKTyWMk4f0yyq5PDXidgCUy5EQEnImB3fWI3PQc9lVh2SHae3CALEqbK13v+rOQP+m1j1nKJK9kraeeOhF2P2Q2nQMtDfexELTR2nUn8XHDBVxk6VUzhNomr3CeJ1YdtleLO7ZM9JVtl9fHFMiX+Y/lk3+/ki0N/kmlHP5MfMmfL5tOr5VD5bjlWFSvHJrDswA4YAktgyo0IOBEBu+sTu+k3U564yhjZVbxJlmbNkY9i/lUTjnEO10w+7n17P1EfO1H7jF9nEj8XfIyiRkepaC+R5uFGW6WrQ1fk8kCdFLeekUPn90hM5XbJvZouZe1FUtVdIXV9F6RhsF6ahhs0TVT5gR0wJPFzaVw8dBwCdtcnE6UfvD23ceiy1PdflKKW03Lw/G5NOMY5XPP2f15/+71Ffew41eO1wiR+LhAZRY0vSSiPOzJqy9T1sEPOd5drwrHdygnsgCGJn0vj4qHjEIgUfWI3/WHK0/OoS2pvVWnCsTnPvX/vJepjx6kerxUm8XOBKFIU9fDzAQHhQ8Kx3RQhFY1Lo+KhYxGIFH1iN/1hyjP8fFBA+JBwbM5zT+LnWKUSooqT+LkASUXtn0LxpIBJ/FwaFQ8diwD1SWj0iSc9w/O+4Ut97FgV5LHiJH4u0FBR+6ZIvClcKhqXRsVDxyJAfRIafeJN3/D6+DhTHztWBXmsOImfCzRU1OMrEF8VLBWNS6PioWMRoD4JjT7xVe8w39h4Ux87VgV5rDiJnws0VNRjKw5/FSoVjUuj4qFjEaA+CY0+8Vf/MP/buFMfO1YFeaw4iZ8LNFTUbyuMQBUoFY1Lo+KhYxGgPgmNPglUD/F/r/CnPnasCvJYcRI/F2ioqEOjqKloXBoVDx2LAPVJaPQJCVxwOFIfO1YFeaw4iZ8LNFTUwSkYo6CpaFwaFQ8diwD1SWj0idEr3AeGJ/WxY1WQx4qT+LlAQ0UdmGJxV8hUNC6NioeORYD6JDT6xF2/8Ld/uFIfO1YFeaw4iZ8LNJYp6pejMvpi+K105+U4nTcM+W+/HJHbL0belGnc8vi5ggkVjUuj4qFjEXCMPhlLP0C/jafjxvpPuM6FQb/6rO8NTp72IcCE+tixKshjxUn8XKCxSlFDCQw965eBp7c04RjnPH25Wp0fpA/PQDT8wad9WrbxyuOpnJ7OU9G4NCoeOhYBp+iTd/SAO4kJAXl55xlB3NNq/erz/d1x8vQ7iLoCN+pjx6ogjxUn8XOBJtSKGqSq9e4NuTRQK2c7iqTg5klNOK4fqNVrg0/73xBAq/MPPRuQjvututA51votaSuQotbTcra9SGpunZdro1el/8mtN+UJVNlS0bg0Kh46FoFo1yfu+qH/6S25frtJdVtd/wVpGmmQvie9QesT9+cE+ttq/erz/V9bHDsetMm57jIpbDklpe0FUtZR/FaCTsb7Azp55MVQwDhSHztWBXmsOImfCzShVtTotKeu58qusi2yIHOGTD7ysSYc7y7boteQxygyq/OD9JW2Fcjh6hhZljtPZiZ9JTOSvpT5GdPlpzM/Skr9ESV/pjyB7qloXBoVDx2LQLTrE3f9ANKXdvmY7CjdKFuK1siR2kNK/tzzTdRvq/Wrr/c3FsGyjiJZmDVTPiCHHnMAACAASURBVNr/W5mU8JHMSPzirbTm1A9y8lpO0B/k1MeOVUEeK07i5wJNqBQ1XKkjz4cEX727yjbLvPSpSrCmHP1EkEC25qVPU0KIPMPPBzRZl39Qvxgbhi7Joao9six3rsxJnSwzk76U75K/1jQz+SvZWLBSYAkceNo3rivam+KmonFpVDx0LALRqk+g26DjjB6AJ6HrQbt6ENbmL5Npxz6XaYmfy8bCVVLXd+FNPpM/3Hu76WPo155HnXK8KVM+Pfh7+dWGv5XPDr2n7wW8G0wi8XOs6rC84iR+LhCHSlFDMd563C1FrfkyP2OaduT4mgP6G+fia/brOVzD766HHZqsyt/zqEvghinvLJZFWTPV0ofyFLeeFnx1wtK3MHOmLMmZJSeuZcvNO9eU/AWqoEn8XBoVDx2LQLTqE+g26DijH0D6znWdlUPn98jUo5/KX2N+I9/Ef2Ab4mc3fQzPy43bzZLXnCWz9QP8Kzl28bCUdxS/lejqdazqsLziJH4uEPuqqGGqx1ebJ8sYzt+40yw5V9Pk+5RvZF7GNO3Q+DJGwlgOnMM15IElDsmq/BhrAzcExhjC+rggc7qOOTSTTKp7KmX58Xl6LbX+qNQPXJTex91vFLtR8N7qbfKR+Lk0Kh46FgFf9QkmWeHjDAnHph+Zvd30CXSb0X3YXx64KMcuxsrqU0vUVfl13Pvq2QjW4gcseh91aRoLF4OPt73d8LsyWCeX+msktylD9e6qk4vVWtp+r0Xa7rWo9RTjBaFvb2PCh4fJHb7iQ33sWBXkseIkfi7Q+KqooUha7l7XhGP3jtn9sFMu9J5TS9qqk4tkS/FadXmY8CkX+y7oOVyDtQ2WPiQcW5EfVj18PYL4bS/dIDGV21VZQ7Eg5ALKuvLEIh3rd/RirP5GHdzrZRSoUfzu181vKhqXRsVDxyLgqz4B4au9VaUJx6Yfmb3d9An0BcqkevDOdcm/cVxWnFgoc9OnyNbidbKtZL0szJwRtMUPpA/DX5BwbPDwd283/ErazujHf8aVJFl5cpFil3wpQQpb8lVHw3racveGYOKf6mgPxM9XfKiPHauCPFacxM8FGl8VNWZjYWYuZmNdHrwonQ/a1JJnFFLbvZty5uYJibuwTxUh9leHr7xRXDjGuW3F63SPTo9kVf7jTRlS1V0uVT0VktecKQUtJ/XL8tUs3zYt6w85s3UCCgZn4wse7hxTH+RDHXEe9SpuOyPt91vfXDf5zJ6KxqVR8dCxCHjTJ7DYgOjV9J6XuAv7NeHY3fJnN31y+kaefvTCiwAdCBfvj3kLBGPS4DGALvsxb37QxA/u0KyGFJ0wcrGvWrofdoxpETV6x9PebviB8J28lq2TX0CQQZhjKn7WD//EujjFEG7gc11lqmcxo9d1TCXaDbAAJtDXwAhYeao/9bFjVZDHipP4uUDjTVGbjgW37L5zO2RT4So5VndYv95AjMx1M7sNs3kxuQOdE+dcr6dfTpTd5Vs07SrfIposyp9cnyCXB+tUWcBSCXfC4LN+6bjfpqFc9lXukOmJn8uCjBlqeYSb19W1grqVd5boOJSfzqyQvRXbBO4KUx/3PRWNS6PioWMR8KZPjKUPpO/ruL9qwjGsf66WP7vpE3gmrgxd0g9J6MAfj8+XhJoDGqUA44ah70AEg3X1gtgg2gA+SjEGDh+uIDzu+sbbb7vhd/D8LiV3eD9gUscnB34vW4rWqrscERdgNZ2TNkVd59C7CInjGs4FGAALYAJsgBGw8oQD9bFjVZDHipP4uUDjTVGbjoVOhw43I+kL2Vvx8zsWMMTDg3LcWbZJiV36lcS3iB++zvDVt6d8mxLDHWc3CpJV+VEWlAlfjXAdwEXQOHxZJ3fEXzggmwpXy9KcORqGAfEFNeK+y9gSEMTS9kJ1EU89+plOBKnsOqsrf4wVnZ+KxqVR8dCxCHjSJ+6WviXZs+SDmN94JH520ycgJ7D6geAhNNXi7O8FXgUMJ0FsUAwXwUSxtflLBXoCgevHc1kavWr2xqKFZ8xKnaQTRvDMQImf3fBDZIXcq+lK9IAfwmlhsh2sgDmNabK7bKuGd/ku+SvJaEiW5pFG6XeJh2iIHzDBZBpgBKxw3vWD3eBJfexYFeSx4iR+LtB4UtSmA5k9SNC3CR/q11pSXdw7gUphVTvRnC0Hz+/WMXVQhM0jDW++yNCRMRga8a6QB1/LSFblR1lQJihfjMvBmJnYqr2yJn+pjin8ueQnyW5MfW1p6HxnqSUobnw1w3L48f7fyhexf1KXL8LQYNyiwcXsqWhcGhUPHYuAJ33ibukD6QP5g7VvLFev3fQJ9BTG8YHYITQUPhxzrqartyCzIVk/YDFxDYQQQ0vwoQsdYvSDt70hNrHVe2XK0U9lthdi4+1+dsMvuzFN6vprdPhPZVepIGH4D1zniKgA8ry5cLWsPLFQw29h/Hf7/ZY3+LkSY2ADjICVJ2JMfexYFeSx4iR+LtB4UtRGsaDDwVoGZfb5oT9qwlgMuEZdwxt0PmiXis5SSbx4WNafXq5WP4yPg8UNCce7y7fK+tM/ah6EUEGyKj/KAnctFGp1T4W6GVCuZcfnyeaiNWqdhAXQE5EDYUQ4GASjhmvi4/2/E1gxW+/dUJexwcfsqWhcGhUPHYuAuz6B/gDpM2P6vFn6TH+ymz7BOLQNZ1bI8uPzZd3pZRqPFGP7oBNACjG7F+FcECMUQZxhCUTcOlMfb3tY6DBOcF3+Mo18gD3c397+5+m63fBDEH0QvZY713UVJdT3zYpJL0flyuAl9a6AWGPs34nmLP1wd68fMHHFCJjhXu75qI8dq4I8VpzEzwUad0Xt3oHMLKqE2oMy6chHqpTOthcq6XMdfIsxGQihgi87RGZfnjdfqnrKdZwGxmrgywzncE2//vou6Kxfq/KbpZPwlYnxI3jhbCteL0mX4nXsHpRF35Mej65b4yKu6CzRuIQIQn3g/C4lt1Cq7jhR0bg0Kh46FgF3feKvpc/0K7vpk9K2QvVY7CnfKjvPbtJViED4EC0AQeARquqjff+mrmuMcca4v/Emg5l6mj0IDQJBw2oIYpNyKbgVheyGH4g/XOD4kIaLF8N+bmAM+Ou1ejFeb2PBKh1OBLcwZgEj9p/Bx+yht4GNIX/AbCyCTH3sWBXkseIkfi7QuCtq08HM3izJA2WHcRWIv4SvWXPd7PXL/mGnroOLsYBQhHAJY01cJBzj3A+5c1QpolMjYd1ca/K3SdfDdg27ANL2/t5fq4sG7l4oHxA6JIRpuDba6HGsCFzEsBBiXAoGdaddeXvSiqk/FY1Lo+KhYxEw+iTh3AGp6Tnvt6XP9Ce76ZOm4Qad0IYhJGbWLcb7wboHogf3LzwicEGCECI8CYI8m/p42qOe8EqEamyfeY7d8ANhq+6tlKzGVCV4cJVjjCTW7QUhzGhI0skxmCADUoiYf72PfomyYOplXOLexvpRHztWBXmsOImfCzRGUSdWHxZ0FtPBzN6EYUHYAnTKfZXbNfCyuW72sJBB2SBeHxThgozpMiv1W8FgXSSQRrNeL5Y0QiBlJKvyY2UQzOpFuJg/7/6V/OOa/6J7zCTE8kpm2TbE8kuqi/c8VmSkQQduw70DggoCDLe1qbfZU9G4NCoeOhYBo08OnN0px69m6hg+9DlvY/pMPzJ7u+kTWNAwdARj5zB+D+N/kUBQECsUZA+rEiGkC8angfQhJJSpj6e9ITKhGttnnmM3/ODWRV3xsY0P6bkaVH+GvhNwjOU8F2V9JzvPbtYlNEH68D4x9TF7V6I83lg/6mPHqiCPFSfxc4HGKGpPxA/EDK4MzMKCyxRfbAhmbDqi+x6KEWMA0YEx0NmswYhjEEKM60Me8z+r8t963KMEFV/lIKAfH/idTDnyyRvC5yvxwwBjKPI9FVt1RjPIH9zWxkVh6kFF49KoeOhYBLqGOiTt3BHZeGKFbDyzUodYjDd71/QfT3ur9IN5nr/3N/8ze8w8xcQ1eC4wFAQWQAwzMde97WEJC+XYPvfn+Vs/y/K/duk2jzZIYt3hVyFrcueoF2hO2mRZmjtHozxg5i8me7jXw/23t7F+1MeOVUEeK07i5wKNN+IHlwW+yCYf+VhnW8E0D2uae0c0vzWy/d3rcqm/VsfSYawLEr70EDYFigV5rM7/aq3KHv0qx0QPRIiHy9m4eM3em6vXjJXB4O5PD/5BB3AjmLPO7HUJ/0JF49KoeOhYBNoHWiSuZK/MSfhW3t/5z35b+oxeMHu76BNTHvc9xi+D/OEDsWGoXkmfaxgS9/zuv0M9ts/9/rbC7+WoYtU82qjDhSq6Sl8NBeooUpcv3g++rpnubawf9bFjVZDHipP4uUDjifi9CoNyS0OYgPR9Ffe+xrDyNUwBiBFmzCJoMpKn2bNGUVmd3zzH371Z7ByWys9j/6gzfLG+MCZ4uLpyqGhcGhUPHYfAs+fP5P6je3KxtUo2Zi2Xz3f/Qf6w7Z88xunztx9arR/8vb+/5XfP7+6yRGy6YOL2ud/f/be/9QtXfgz3ARZ438A97V5uT7+Ni9yM9XMPf0N97DgV5LXCJH4uEHkifohBBZKHyQwgfSB/WLrM58CkL0fVKoYOrZ0ase9cLGTvdGir83tY+/GdcrjlgzIC+SvrKNbI8sBhrPhRVDQujYqHjkMApK+l77pkViXK5JgPlPRheIinOH3e+t07163WD/7e301PvFNeL9e9ERd/7+c1v7/1C2N+6FglfeO9H9zw9EacqY8dp4K8VpjEzwUiT8QPM2Lh1sXU+slHP5Z56VN1pppXBePWQaMlv1lKCThgqaGsxpS3xjpS0bg0Kh46BgFj6bt5q1lya9JkfeZS+ejn38hHMf+qEx7gynRdii1a9EGw9XjbVfmthicZKyxJsM+J9v//MtbvFYYmDA71sWNUkM8VJfFzgcoT8cMEDpCbLcVrZX7mdJ3ggYke0a5IPNXv1ezm/Rqoddnxue+s3UtF49KoeOgYBIylD6RvfvxkJX1f7/mzLM2aI0Utp5X0wTrjqV859bwnwuJUPAKttycCTX3sGBXkc0VJ/Fyg8kT8sCA5gpMiPAFCuSAsCshPoB000v/Xdu+mxtrCbGXMCAYumBhi6kVF49KoeBj1CLhb+jbnrJQp+z6UL3e9JwsSpsqu4k1S3/9u2CPTX5y69+aidCougdbbk8u8urtSEs7tl5wLKYJ3HDciQOLn0gY8ET8EaUawZoRCQew6BD1GMOdAO2ik/w/hYa4M1mm4BkzyQFBozBI29SLxc2lUPIx6BNwtfSB9IH/7C7bLzpMbJK4yRpfmMv2D+1HVFZ6ICs7TMvoKI3/aiicinXUlRfaX7iDxi3pN5HsFSfxcsHInfmYyA5Zlw/JBWKYNy7VhBQss3+ZPp4ymvEbBINr8F7F/0oT1i7EeJ66R+Lk0Kh5GLQKeLH1w88LdW9ZUJIllh8RTXNBo0gmB1MWTazKQe/E/vxBFd9f59uINsv3MTyR+UauJ/K8YiZ8LZu7EDzNYex936yLZsGwhgeCA9Dn5i/RVeINBKW0vVCsoZvfGX9iv60SC/JH4uTQqHkYtAp4sfSB9mOBxvfeqZJw/RuLnYZKbO0ExkxFI4n4hcYFg4U6oZyV9Iz/lLiPxi1pN5H/FSPxcMHMnfiZgMdbW/ezQezLpyIdKdgLpjNH4n5pbVbIm/weZnTZZfi75SY43ZUrLneskfi5tiofRh4A3Sx9CuYAUuuuTaNQBgdTJeAywJi9izlkdty+QMkbyf9xd6J/vf0+Wp86RtMoE6Rpqj74OyRr5jQCJnwtk7oq6/X6rYGWKvRU/v71EmYcv2EhWFoGUvXGoXg6d3yNY43dF3gLZf26nRuynxc+lUfEw6hDwZunDdZBDd30SSB+Lxv+4ExP3gMPRWOdw1smdWH+8999kdsI3Elu0W9r6b0Zdf2SF/EeAxM8FM6Oo4yr3SUV7iZS1F8uBc7t01up3SV/LiryFcvp6nlq0QG6cnio6SuRwVYyszFsk0459Lli799S144odMOQsMpfGxcOIR8BXS5+pqLs+cbq+MPU3emP58fnyTdxfZX7aNDnRlO14fWrwCdUemALbT/b+Vr7d975sO75Ghx+Y9sm9cxEg8XORvVHUMYXbBMRlZ9EmmZ34jXx98M8yJfYjWZw6U/aUbNUxOxiw7fR0qGKPbD29RhYkT5U/b/9vgi/LzfmrFDtgSOLn0rh4GPEI+GrpMxV11ydO1xem/jsKN8j0I5/LpzG/k0kHP5BFyTNkT/EWx+tTg0+o9sAU2IL0ffjzv8jy5NnS0HnJNE/uHYwAiZ+L8IfuDkhFc7ESFpCWmNNbdcmlz3b8Xn5Mnqu/kyvi3lxHHienzKokSamIl625q+XT7b+VT37+N9mUvUISy2N1UDuwBKbciEAkI+Cvpc/U1V2fOFlXoO6Y6HL07AHVEV/t/pN8ses9WZu+WF2QGH/mdHxCXX9gCvcuMAbWCxKmSOW1Urn76I48e/7UNFPuHYgAiZ+L0J88e6xEBV/qSIWXT8i0/Z/IN3v+IqmVCfq11DZwU6+ZPE7edw936mDh4oZ8WXxshsyK/UriS2OksrlEbtxqUiyBKTciEMkI+GvpM3V11ydO1hWo+7WeRoGuOFi4Q2bFfilLjs2UgssndNwZJh04HZ9Q1x+YYkwfMAbWCCaeVZWkcgD54+ZcBEj8xpD9sxfP5P7je0pgQGaQ8KX04PF9ef7i2Rj/cPYphK5AoNqVqfPlWNlBqbpRLsP3Bp0NCmsf8QgEaumL+IpbVIG+271ypj5PPSfQFfCoYAY0N2sRAMbA2mAOGUAW3JyLAInfGLIH6cOXUl5thiw8Mk1WpsyTyx0XlfS9fPlyjH84+xS+LNPOJcj2vHWy69RGya5OkZ7hTmeDwtpHPAKBWvoivuIWVYAExCJgvdyWhNsLQA68TOI3htBhraq6UabWq1VpC5TMwKrFbWwEBu/2S1lTocSV7JU16Ytl3+lt/JIfGyqejQAEaOkLrZAwngyuxQs3K2R12kJ1O+LjEK5fuhxDi/VYdwPGwBqYw+ULGUAWOM+xfmMhFv3nSPzGkHHvSJfk1qTKnvzNsv3Eekk7d4SBL8fAyZy69+iu3LjVLNkXUgTLVcFC2thVby5zTwQiCgFa+kIrLhKP0OLp791IvP1FLPrzk/iNIePW/hs6APmnzKVqxTp7tUAG7/SPkZOngAAGscNKWtp4WubGfSvzE6ZI1fVyefDkgTx/8ZwgEYGIQICWPmvERFejNbj6e1e62v1FLHrzk/iNIdum7iuyLmOJLD46Q7Kqk6S5p0HuPuQsqDGg0lMvXr5Q8lfXVi3Lk2br7LFTddnSOdSm5M/T/3ieCNgJAVr6rJEGCYc1uPp7VxJwfxGL3vwkfi6yffHiuTx++khqWs4p6ZsXP0mKrpySgTt9et4lKw/HQACL0iM6/I/JcySpPFZqW87LyP3hMXLyFBGwDwK09FkjC7oYrcE10LvS5R4octH3PxI/F5mC9IHkgeyB9MHiBxKI8yCF3MZHoHOwTQnf1uOrZe/pLToruneke/w/8SoRmGAEaOmzRgAkGtbgGuhdScQDRS76/kfi5yJTuHObuxs0yCVIH9y9cPty8w0BkOaShnyNFr8+8wc5WLhTMF6SGxGwIwK09FkrFboWrcU30LvT9R4octHzPxI/F1mCuJQ2npG44j2yPnOpTvAgcXEByMshiHNTd4NkViVq/MM16YvkavdlL//iZSIwMQjQ0mct7iQY1uIb6N1JyANFLnr+R+LnIksEIsbSbAhEjFAuuTVpgtAu3HxDwNVVPjdukpK/6hsV8pCze30DkLnCggAtfdbCTJeitfgGe3e64INFMPL/T+LnIkMEad51cqOsSl3ApcdccPH18MWLFzoeEpM6liZ+r2FdTl/K1VU8QP64EQE7IEBLn7VSILGwFt9g705iHiyCkf9/Ej8RwTJsWIMXy7Ih+DCWaTtRm6HLtmH5Nm7+IYAo8ZtzVij5S6mMl0ttNTL6YMS/mzA3EQgxArT0hRhQD7ejK9EDMDY7TVe8zQQSxuKQ+Iko6Xvw+L5UXiuVWbFfaaq8ViIgfc9ePAujOKLjUR2DrXLk7H7ZnLNS9p3ZJvl1OdI32hMdlWMtIhYBWvrCIzoSivDgHOxTSNCDRTBy/0/iJ6JBhhFsOK82Q747+Lla/GD94xYYAv23b0nB5RM6OWZD1nKJK94rbQMtgd2M/yICQSKAlWWG7g5IQ2edZFcn6wfJlH0f6vKCGMcLogJSyC04BB4/eyxYt7u8qUhWpMzjmrzBwWn5v91d8pAZZAcZQpbcohcBEj8RfSlUNBdrGBIsYr0ld5UgGDG3wBC482BUGjov6RrHS47OFCx9hzA53IjARCAA0lfRXCL7C36WmQc/E5A+WKNB+jCuF6QPbmBuwSFgSN+Bgu2CyV2r0xbKhZsVAoKBcWXc7IWA+1g/yAyyM+TPXqVlaUKJAImfiHQPd2oIEgQeXpu+WMO5tA3cDCXOjrrXo6cP5dZoj1r95sVPfhUI++Y5wXmu3euopjChlTVj+vARghfanMPfyAdbf63kD5Y/WvpCKx4M8ThWdlDHSYNEIDrCjd6m0D6Edws5ApARZAWZYYw7ZAhZcoteBEj8RAQkD7H7QPpA/hCHDmSQW2AIgNyB5GHVE1hQQf7g+gUZxHluRCAcCJgxfSB5Mw9+Lh9u+7WSP1j+4PalpS+0UiCBCC2e4bobCXu4kLbPc0j8RNStC/cuSEps0W6B2xfuIW7BIQD37k9ZyxTX9HNH1P0LNzA3ImAlAsbSBzcu3Llw607Z95GSP1j+4PZl/w6dBOgyDB2WE3EnuugnAvWJfSaJn4iGcUEIF0zswAQPTPR4wLhzQbfM9oEWndiBCR4HC3eo1Q8TP7gRASsRMJY+kL75CVOU9IH8wfIHty9IHyZ8cAsNApwkEBocJ+ounJQzUchP3HMdTfwQqgUhWyqbS1zCuJQKQrsgrh+34BBACBeEckFIF7x4EeKFY0eCw5T/9oyAJ0sfyB9n73rGLdgrDAsSLIL2+D/D8NhDDuEohaOJH0gf1uKFlQ8WPwxsRRgXkD4EdeYWHAII2ozgzQjijJU8ENQZwZ25EQErEPBk6ePsXSvQ/uWeJAy/YBHJRyTwkSw9/8ruaOI3fG9Qqq6XydGzB3WZNizXhnFB3EKDAJZp6xnulNP1uepyA/mrba3SZd2wvBs3IhAKBGjpCwWK/t/DfWwfxkhnV6foxx3cv9wiCwF3lz3D8USW/PwpraOJX+9Il+TWpMqe/M06nT21MkG6htr9wY95x0EAs3tB/qpvVsiiI9NlXvwkKbpySgbu9Cn5G+evvEQEfEaAlj6foQppRhKFkMI54TcjkZ9wEYStAI4mfnDzYtLB+sylGs6ltPGMkpKwoe+QBzV1X9FQOYuOTNNQOU3dDXL3IS0CDhG/ZdWkpc8yaH26MV2DPsEUcZnouo84kfldYEcTPxCSdRlLNMBwVlWSri5BQuJ3G/L6hzYl2DuVYCNcTklDPgm2V9SYwRsCb1n64idzRQ5vgIX4OglCiAG1ye1I6G0iCAuL4Uji9+LFc3U1IsDw4qMz6IK0sIHh1r0j3TqBZu/pLRogO6k8VjoH2yx+Km8frQiMbenj2rvhkjddguFCemKeQxf+xOAezqc6kvg9fvpILU4Yb4ZxZyB/IIE4D1LILbQIjNwfltqW8wLC92PyHNl2fA3XQg4txI66Gy19EytuEoOJxd/qp5PYW43wxN/fkcQP7lysKgH3Lkgf3L1w+3KzBgEEw0ZQ7FN12bIgYaosT5otdW3VGkT3xUvO7rUG9ei7Ky199pApXYH2kIPVpaAr32qEJ+7+jiR+mFWKiRxYnxcTOzDBAxM9uFmDAGb3gvxVXS/XsC5z476V0sbTgnA6XEHBGsyj8a609NlDqiQE9pCD1aUgwbca4Ym7vyOJH0K2IHTL9rx1GsoFIV0Q2oWbtQg0dtVrkOz58ZMl+0KK3LjVLPce3bX2obx7xCNAS589REgXoD3kEK5S0KUfLqTD/xxHEj8Ead51aqOsSlsgx84e1CDOsD5xsxYBWAr2nd4ma9IXS1zJXilrKhQsEM6NCIyHAC1946ETvmskAuHD2g5PItG3gxSsKYOjiB+WYcNybFiWbWXqfF2mDcu1wc2L5du4WYsAVvFAZH+Qblhb084xYLa1iEf23Wnps5f86PqzlzzCVRq69sOFdPie4yjiB9L34PF9qbxWKrNiv9JU2VyipO/Zi2fhQ92hT9Il8m6Uy7Gyg0q8d57cwCXyHNoWfKk2LX2+oBS+PCQA4cPaTk8i4beTNEJTFkcRv0dPH0rvaLfkX8qR7w99qRY/WP+4hQcBkO72gZty4mKmYBWPFSnzpL69Rp4+fyKc3RseGUTCU2jps5eU6PKzlzzCXRq6+MONuPXPcxTxG30wIpfaayS1Ml5DimzJXcV4cta3sTdPMBbX89fPyty4STLn8DdSdrVQbj8YUfL3JiMPHI0ALX32Ej9f/PaSR7hLQ+IfbsStf56jiB9M1qfrc+VAwXbZkrtSjpw9IB2DrdajzCe8hUBD5yVZljRLENbleE2atPXf5BjLtxBy5g9a+uwpd7r67CmXcJeKrv5wI27d8xxF/DoGWuVI6X7ZnLNSyd+Z+uMCpcYtvAjcvHVNdmNWdeoCOXJ2v5y7VipDdzmrOrxSsN/TaOmzn0xQIr7w7SmXcJeKHwDhRty65zmK+F3ruSpbclbJsqTZ6u6F2xfuX27hRaB7uEMyzh+THSfWCyZ4ZFYlSfdwZ3gLwafZBgFa+mwjircKQhffW3A4/gdd/tHTBBxF/DCRY+GRafL9oS90ggcmemDCB7fwIjB0d0AwmzqhdJ+sSV8ke09vkZa+a+EtBJ9mGwRo6bONKN4qCF/0b8Hh+B/8EIieJuAI4odQCzUJOwAAIABJREFULYjTB7LxJozLtVIN7YIJB9zCi4B50R+vTZdFR6drIG2QcigWxFrk5gwEaOmzt5zp2rO3fCaqdHT9TxTyoXuuI4gfSB8mECBYMyx+K1PmaRBnkD4SjdA1Jl/vpET80T2pvFYisw9/ramiuVhgYQD54+YMBMwHQG5NmmAZvyn7PtTxt/iN1XVwHeSQ28QgwBf8xOBu96fyg8DuEvJePkcQv1eBg8s0cDCWacPKEXixcJtYBK501MmSYzPVCovYfp1D7fLwyYOJLRSfbjkCtPRZDnFQD6BLLyj4ov7PHAIQ+SJ2BPHrHemS3JpU2ZO/WbafWC9p545I11B75Esvwmtwo7dJ5YFAzonlh+TCzUoZuTcU4bVi8b0hQEufN4Qm9jpf7BOLv92fzg8Du0vIe/kcQfywFu/Bwh3yU+ZSiSvZK2evFsjgnX7v6DCHpQiAfKdUxsvPeWuVlCOmH0g6t+hEgJa+yJArXXmRIaeJLiWHAky0BAJ/viOIX1P3FVmXsUQWH50hWdVJ0tzTIHcf3gkcNf4zJAiAfIOExxXvUfkgsDZIOrfoRICWvsiQK1/okSGniS4lPxAmWgKBPz+qid+LF8/l8dNHUtNyTknfvPhJUnTllAzc6dPzgcPGf4YCgXuP7uiSedkXUlQ+a9IXS0NnnXDSTSjQtc89aOmzjyzGKwldeOOhw2vuCHBIgDsikfM7qokfSB9IHsgeSB8sfiCBOA9SyG1iEXj6/KnceXhbypoK5ftDX+okD6zi8eDxfSV/E1s6Pj1UCNDSFyokrb0PX+TW4httd+eHQuRKNKqJH9y5zd0NklWVpKQP7l64fbnZBwGE06lvr5EFCVPkOxNYe6RbHj1hYG37SCmwktDSFxhuE/Uvuu4mCvnIfi6HBkSe/KKa+MHaV9p4RseQrc9cqhM8OIbMfo30Wm+jbM1dLcuTZktyRZzUtVXL6P1h+xWUJfILAVr6/IJrwjPzBT7hIojIAvCDIfLEFtXED7NGUysTZHveOp01isCwnDVqv0baMdgmiWWHZGvuKtl3ZpucrMuSW6M99isoS+QTArT0+QSTbTLRZWcbUURkQThEIPLEFtXED0Gad53cKKtSF2jw5qob5YJgztzshUD/7Vs6DvNQ0S7ZkLVMYot3S9vATXsVkqXxGQFa+nyGyhYZ+eK2hRgithD8cIg80UUl8cO4McwMxfqvWJ4Ny7SdqM3QZduwfBs3eyGACR5Xuy5LRtUxXcljfeYP0thVLy9evOCSevYS1biloaVvXHhse5GuOtuKJqIKxqECkSOuqCR+IH2YGVp5rVRnis6K/UrXhQXpwzqx3OyFwJNnT9QSi9nXMw58Kt/Hfimwzj5++ljJn71Ky9J4QoCWPk/I2Ps8X9j2lk+klI4fEJEiKZGAiN+TZ49l6O6A9Ix02TLBTdjQeUnH932z5y8ybf8nUnj5hC3LCgyBJTC1erOr3LqHOqRjoFVOXswUyOvLXX+U9PNHpam7Qc/btZ05XW5GLl1DHdI+0CIXW6sksypRMJHqo59/I1/uek/2F2yXsqYijddo8k/0nnJ7pbcxBrqt/6YUXD7xes3sL3UCXHFDvlzrabSdvqTc7Pm+Nf0ZbQZtB6tkzYr9UtsU2hbaGNqayce9f3K0ot0HRPxQkIrmYsm5kGLLhJmhMae3yo/Jc+WzHb+XyTEf6G+7lhdYAlOrN7vKLbs6RbKqkmXPqc1K/D7d/lvB+r37zvwsKRXxtmxjaEtOl5vpT1j7Gkshbsxarn0NpO/rPX+WBQlTZefJDTpxJ+P8MdvIkXJ7pbfTKhMktmi3rE1fLF/sek++2v0n2ZS9Qo6ePSB2kpdpZ5SbPd+3Rj5oM2g7aENoS2hTaFtoY2hrJh/3/snRinYfEPEDY4fwYgq3SVzlPkmsPmyrFFuxV7YWrJMfc+bLrKRvZFH6TNlTstVWZQRmwA4YAktgavVmd7ntKdkiC9Kmy/eJX6vsthWsE8jSbu2Lcnu7v8dVxsiu4k2yNGuOfBTzr5pwjHO4Zhf5UW5vy+1wZYxsL9ogy7PnyaS4D2Xm0S9kR9FG28jLtBvK7W25GVzsukcbQltCm0LbQhtDW7Nree1aLivbfVDEDwWraC+R5uFGW6XGwctS11cj5R0lkns1XU40Z0lN73lblRGYATtgGG7iZ1e5Xeg5L7lXMyS7MVXKOorlUl+NQJZ2a1+U29v9vXHostT3X5SiltNy8PxuTTjGOVyzi/wot7HkVislrWckoeagHK2NlXOdZbaRl2k3lNvbcjO42HWPNoS2hDaFtlXfX2srPWBX3NzLZWW7D4r4gSmjsHdk1JZp4GmftNy9rgnHdisnsAOG4SZ+dpUbZHTjTrMmO8rLtB/Kbez+3vOoS2pvVWnCscHLLnvKbWy59T7qkrr+C5pwbBd5mXJQbmPLzeBjt73d25Pd8PJUHivbfVQTv9EXwwICgYRjTwBP1HkrBTuW29i4eu1K/OwuL9NOKLexX0TDzwcFhA8JxwYvu+wpN89yw8saiXITHXaDj3G76km79CdP5UAbsnN78lRuu523Ul9FNfGzmyDdy2OlYCOR+LnjY9fflNvYBMKu8jLlotwot7H0ovs5u38gm/bMfWS2Z1/lZqW+IvGbQDe1lYJ1V2b4TYUWGkVBuYUGR18VYKjyUW6U21h60f0c9WRktpNQ6Qm73MdKfUXiR+JnO5ecXTqep3JY2SHdX0Ik7KF7CVFuocPSU9+w4jzlFplys6ItOOmeVrZ7Ej8SPxI/P9uAlR2SxM+6lxzlZh22Vr6QKbfIlJuVbcIJ97ay3ZP4+fnSD2WDs1KwJBDWKUvKzTpsQ9m/3O9FuVFuY+lF93N09UZmO3Hv75H+20p9ReJH4keLn59twMoO6f4Swm++iELzIqLcQoNjuF+olFtkyi3c7STanmdluyfx8/OlH8rGFahgnz1/Kncf3dGEY183EojQKFDKLTQ4hrIv+XIvyo1y80VXUk9GZjvxRQdEUp5A9ZUvbZzELwKJH0gfFsRGwrGvGxVaaBRaoB2ScgsN/oEqb8ptYvGn3CIT/0Dlxv8FJ+9A9ZUvfMCexO/lqAZcRkBfk+68HAdEq/ODHOL545UhAALpr2AfPX0ovSPdUttaJWnnEiS5Ik4qm0vkRm+T9I32eLUAWkb8rMY/gPvffjkit1+M+NZ+/JQd5WZdv4TcTJ/HPpR9jnKzSG5j9Z8Q6kvKzQK5Gfl42o8l04k+F8B7wFWXeNUnAdzf9R2D+98OIUfwt937QvhMHlsSPwA49KxfBp7e0oRjFZqHhmd1/jekz3QSD+Xw9wvHX8GC9J2ozZBNOStk6v6P5atdf5R5cZNke946ya/L8WoBtIr4WY2/v/c35AER5Aef9mlbGq/9UG726GeQ28jzodd9n3Lz1C797Q9W53+nnEZPmn2Q+pJ6MsT908jF2z5Iub3TLoK8n9Xt2N/7g/S9ese84iqDT8fnKf7i4W+7N6TOl72tiB9e0q13b8ilgVo521EkBTdPasJx/UCtXgO4BkBL878claFnA9L5oF0ah+qlrKNYzneXS9fDjjfPN+UIdO+vYNsHWiS+JEa+j/1S/mXN38t/XfKf5Vcr/0Y+3/F7WZ+5VFIq46XyWqlHC2CoiZ+l+MuokjZ/2gPk1XG/VRcEh6xK2gqkqPW0nG0vkppb5+Xa6FXpf3IraPlRbqHul/3aty8PXJSKzlIpbj0tRa35cra9UKp7K6VppEH6n/RSbnbSj2O8xPuf3pLrt5tUV2PtX8itj3LzW49ZpldfW7Q6HrTJue4yKWw5JaXtBfpuw/vNJOhK6F3oypEXQ0H3u0Dfj+Z/luHxug37e/9XvKBNrg5flsqus/qOeaWviuRC7zlpHmmcEH3lC+EzeWxF/NDYTl3PlV1lW2RB5gyZfORjTTjeXbZFryGPaRCW5X/9JdT5oE0qOkvk4PndMj3xC1mc/b2SP/P8YPf+EojuoQ5JP3dEFh+dIb9Z+w/yfy74n+TvF/0n+f9W/O/yl83/TSbt/avMj5/i0QIYauJnGf6vO6S/9wfpK20rkMPVMbIsd57MTPpKZiR9KfMzpstPZ36UlPojSv4oN5v0Mxc5518/LnvKt8nirO9leuLnMiPxC5mbPlVWn1oiR2oPKYmg3OwlN3d5gPSlXT4mO0o3ypaiNZSbS/u2w3vNWLTKOopkYdZM+Wj/b2VSwkfa19DfTFpz6gc5eS0nZB/K7u3E39/+vgeszg9eUN5ZIgk1B2Rp7lzF7bvkr2Vh5gxZm79Ujl2MVfLnbz3d8/vLDwyp82VvC+JnXDz4StxVtlnmpU/VF/aUo58IEl7e89KnKSFEnuHnA5qsyt/7uFu/XCFcCHFR1nfy3376G/nLnn+WMzdPvCGe7oLy97e/gjXEbXnSbPnXtf8g/8e8f6/pbxf8j/IPi/+T/OOy/0X++6q/9WgBxGSQjPPHgl583G7ygrkdX6YNQ5fkUNUeWZY7V+akTpaZSV8KOiTSzOSvZGPBSiXuA0/7xh064E2OlFto+uXQ8wG1qqMfg/QtzJwp36d8o/39u+RXpH3q0U9VmcISCKtfMBYIyi00coM7HjrA9BNYQLoetKuFfW3+Mpl27HOZlvi5bCxcJXV9F97kM/n93VNuoZEb9F7Po0453pQpnx78vfxqw9/KZ4fe0/6Gd6xJdiF+dnzPgDzD0hd/4YCsOLFQZqdOUuI3K/VbmZXyrX60rstfpp4LWLvDqa98IXwmjy2IHxTJrcfd6t6ZnzFNG2B8zQH9DRNqfM1+PYdr+A13KxKOrcgPt3L6lUTZeXaToBNMOvKR/OOa/9W2xO9v5v97Afn7u4X/sxJATxbA4oZ8OXr2QNDEz27y6nnUJXAzlXcWy6KsmWrpQ/uByxBft7D0gVQsyZklJ65ly8071wRK0N8XkMkfqheR0+XW9bBd8PWMfoyPKyjRYxcPq2u+vKP4jdxgac+9mh60C4Vyy1esg9Wn0NXQAaY/gPSd6zorh87vERD1v8b8Rr6J/8B2xM/p/Q0ekRu3myWvOUtm64fxV9rf0Ndck11cvXZ7z/Q+7pLBZ33q3v0hZ7Z+pMZf2K+uXrjJUy8fVasfdFl2Y6pcHb4S1FAHf/WVIXW+7G1B/PASvnGnWXKupimY8zKmaUPElyQSQMU5WAOQB5YdJKvyw717rO6w7C7fIttLN6gFEha/v+79Fx1zaBSepz3q03LnugoewveUSlrPyO7iLTpur661WgP1wqrnKSEPxvjNi58sv179d28sfsbyZ/buFsDPdvxO1mUskZ0nN8i69CWy7cw6qegold5HXTo41VM9PJ23m7wwlgjmfYwJhbV4QeZ0HSNqJgVV91TK8uPz9Fpq/VGpH7gosOq6149yC28/Q7+AexDEb9XJxbLu9HK50HterbH42n8jt4xpSgIv9ddI7yPKbaL1I3Q1+gqsH9hjbCY8I3DLw134ddz76qnxZvFjfwtvf7syWCfoQ7lNGaoP0ecwDrr9Xou03WtRqy3Gu0GuoZyd6q5nff2N9mEnXqDvmXs31OsHCx/4CFz4ePe032/VcZMwFm0tXqfnYRkMZoxr1BO/7oedOigSlplVJxfJluK16iIwU6Uv9l3Qc7iGPHhRIFmVHwNeMWgTAzXhqjhae0j+tPtXOiYCA2K9NVyQPpjTD1fvGzf9XPKTLEyZLitT5yuhy7mQIuMlkD7k/XLXH+X//fF/80j83L9skfe9Df8k72/+lbz30z/JV4f+IvhSgYsN5M9bfdyv201esOrhKxXED0Q9pnK7voygwDAjG3JceWKRjvU7ejFWf6MO7vWi3MLbzyq7SnXiVF1/jVpiMYyi9e5NdSNCdpigo4Q9Y5qMR9gpt/DKDf0J/ccQt/wbx9XtNTd9ir70tpWsV8uHN+JHuYVXbiVtZ9SIknElSVaeXKQyS76UIIUt+ao7YbVtuXtDQj071V3P+vrbbu8ZTDar6qlQ4gw3L1LO1XQ9B2MRJhEi4YP1+mhTwIYVg0/UE7+2ezeVRcdd2KeKA3tYAwwAOMa5bcXrdI/GimRVfrD4VzMJX81qAsn85MDvNeHYlMvTHuUF6cN4l/HSkuxZMuXwRzLn8DeyMftH2Zu/ZdyEPMj7wdZf63g+Y+Hztv+b+f+D/N3C/yB/v+g/yv+18D/Ib7f+37KteL2Ud5Soq81TPTydt5u8jjdlSFV3uXbAvOZMKWg5qV+wsBZ33G/TtgXTPCYJYfA5LBRwV7nXj3ILbz/DAPIrg5ek9d5NuTbaqK5ckIGmkSsCUnik9qDMSZuscoOC9TQrm3ILr9xO38iTlrvX1dKBD2G4eH/MW6DDYkDQoZt/zJvv1dVLuYVXbiB8J69l66QbTEQAUY+p+FkNKIl1cfpxBTfwua4ytWBhfJrrWE53fWn1b7u9ZzD8C9bSV5M65gjeKXjPw62L94rBF0YjWAEHvYSh84Zf1BM/MxsMs3kxuQMg4pwBBsfplxPV9Qr36y6TLMoPXz2In2n40UX8/qP8dtv/I9tKfgqY+NlNXsn1CXJ5sE66H3boCwluC3Q6kD58ge2r3KGDbhdkzFBLMdy8mBBi2pfZ2/tFFH1yA0kA5pAVQkeA9EFpgvDBXf/5oT/Kxwd+p7Pp4ZLqe9zz1tgyyu1VUPtw60d4Wq4MXdIPrU2Fq+TH4/P1ZYgPZoyrhf4GEfRm8WN/C+977eD5XUru8J7FpA4YM7YUrVU3PSIhwEU5J22KuuwxsTHYyQmmfwa6t9t7Zm/FNjlwfpdsKFipwxm+jP2zDlEBnpictqlglcxNmyJr8pfqULVbHvSVr3hEPfHDlzyUyc6yTUruwKwhdAMQBqSCTQNcEMMdZzdqsio/yoIymef7S/zs68L47+ry/frQ+0G5eu0qL3ydwkUI93Xj8GV9CWH21abC1bI0Z46GmcDEnTcBuV+HWzByptzC289gGcLLHyQcCYPP4d41xO+L2D/pCwqTcuAGxnVYcY28zJ5yC6/cQBJg9QPBgxUdk29gdcdwCxB0DKeAzBDaAkQegfh12AX724S+1xDxAJOkMB4TckOYK0yCgxUwpzFNdpdt1fAumFGf0ZAc9GQq0z8D3dvtPbOzbLPsKd+qlm3opi8P/0UjRcRd2C9Ha2MFQ7cwERRj/zIakoKOYxn1xA9ugxPN2RovD2O0oDiaRxreKHgERERjRXwoxNSDqRUJx1bkR1lQJtNg/SV+ZuwLXmrjpQmZ3JGxRLYVrJPKICZ32FVeeLkAe4xdjK3aq19eGBeKDglzfO2tKg1n4GkZMMotvP0MLyG4ejGWBzOzsQe5M67exLrD6k4BsYByhRUCs4BNvzR7yi28coPexTg+EDuETsKHFVzx0JOZDcn6AY+XH+SGoRf4cAf5M/Iye8otvHLLbkwTjKfFOwlDKZBwDLckIh2AtG8uXC0rTyzUsFiQZ/v9lnfkZuRn9d5u7xmQZIyNB+dABIJlx+e9nsRxRflKceuZ13MRFis3wZhzeJ8CxSnqiR9Wx0CcrsSLh2X96eVq9cM4LFhwkHC8u3yrrD/9o+ZBSA4kq/KjLCiTEZi/xM/8z9veX8F6iuPnPpnD6nAu9pRXm7p6q3sq1J2BdoSOublojVqTYQFE/EdMGPImF2/XKbfQ9Eu4BTF5CrOsYRmqeU3MMaMQJL62r0pJBcbCIoA7LBN4SXmTj6frlFto5IbxYBvOrJDlx+fLutPLNL4q3Pbw1IAUYnYvwrkgfiaCb8MSiPhxnuTi7TzlFhq5Ibg9iB4s5I1Dl98eM/tyVD/CMDEOhB5j/040Z71lAPEmp1Bft9t7BgahPJ20GaPhp9D2YUwwHqSGoXp1BWOxAOCI8ZKuBiR/8fG33fsSxsXksUU4F4wlwJg6fJEgovjyvPlS1VOuY+wwzg4zaXAO1/Srpe+CvjCsyo+yuE7Dtjvxcw/f4mkJt1AFcLarvPA1i3EqIAqYvJJ0KV6tRHAZ9D3peUX6sCqLm8vJ39/+dkhPhN3pcoPSrOqu0BnwkBfGYiJMExQpyB9CT+A8rEoY5oHJIHYgfk6XW2lboXpg4PZC+AqQchA+vOwQJB3hZj7a92/yddxfdWgOCD7CXfjbz0x+9rchfRcG+x6s6T2vH1gYiwnrFYZP3cCQqtcrVV3sq5aNBavUyg63MGYBwwJv5BDuvd3eM/hIRcpqTNFVhTC5A0NT1Jjgoq9W5C1QyyDGl2OceaC4+dvuDanzZW8L4ofxPT0POzUQIsCE4kiqi3szPRrHOPdD7hwdt4XGiIR1WK3Ij7K4Dv63C/Gzy5JtdpMXOheCASOsBFZ6eX/vr5UswN0LJYep9kgIQ4HZo5gE4ipffzumvx2ScnsV5sC9H8MFWN9fq254kLsfcuao1QjWP4SWyL6aph6A1SeX6BgayNDVEk+5jY2r1fqxabhBw4LAApLVkKJj/TDeD9Y9jMGGLDExZ8rRT5UQQpYI8uyvvEx+9rfQyBkfwFj7OqsxVQkeXPQYm4l1e9HnMC4Nk3KQQAo9xc00crF6b7/3zCveUdx2Rpdqw2pi8DoizAu8hCCEiI0IizeMUoibiAkegeLkb7v3hfCZPLYgfnDnQsiI1wfFsSBjuiBAIgaZIs1KnaSDUfFlCcaNwLxIVuVHWVAmIzC7EL/2gRaN9/d97JfyL2v+Xv7rkv8sv1r5Nx6XaLv76I48e/7UyFoDQyNOYGL1YUGjMvXzd283eWEVF8zqRXifP+/+lfzjmv+ie1gcsHyUWbYNsfyS6uLVggzy52+9TX5/OyTlNnY/xhgvBGRG+Ai45DFuBuFbMDMOgbiRcIxxRxpoVid39FNuE6wfYYnBWEu4sUDeMREPCUQB45pg/cOKSgjpAt0J0jfWpBzTn7zt2d/G7j/+vgcxcx56Dx9Q6G9YCxuTPJBwDCKDVSd2nt2sliz0zWA+kL3J1dt1u71n0IaRYBmFpRu6CeuK4x0D3YXJMgiTgzGAsAS6r3Djrb7u1/1t929e9D4c2IL4mQpDkcAvjoaHgcFm7UAcgxBiXJ+rz9zq/KZc+EqCEkPCsTkf7N5fwfaOdMuJ2gzZlLNCpu7/WL7a9UeZFzdJtuetk/y6HIErF2TP02ZcjsESP1Nvq/H39f74qoKLEFYHfDAgBMiUI5+8IXwTTfwot1frgHrqxyZsAywQyGMIIGaGInQCXPYYfoFxf8GsKMD+Nr4cfO1vpv+777GWMibiwRODsBewAEJu7vn8/U25hUhur126zaMNgolTGIsGLxq8afjgWpo7R6NlYNIVJnv4Kyer8vvbLi3Prws0ZOikQXycYplCTGYCfhiagglO+CAyLvRAcfG33Xt674913lbET2d53b0ul/prdWwWxoYg4QsFYTggUOQxQFqd3zwHsw1B+JBwbM4Hu/dXsI+ePhSQiNrWKkk7lyDJFXFS2VwiN3qbpG+0R0mfq4XPXeChJn5W4+/r/V+t6dijVgeY3BGJHuMr0G5c00S5eim38fsx1lkG+cOXNOSHlXNK4T7pKtXB06/GaPa+In1BjNFkfxtfDr72N096D+OxQf4wExQD3UH68NtTfl/PU24hlNvLUZVJ82ijTrpBH4OuPNtRpC5fvGeDXcvcV7n6ms/fdhmW/Heu6wxpLCdb1JKv4yGBJSJKvJnFHoSuAjb+tnv39/14v21F/ExDwGBJzMBEYFckb7Mxrc5vyhXqfaCChVUP1j1vFj53wYea+Bk8rMbf3/ubclm1p9ws6pevh3wYF5b7kItg5Um5WSO3YOXi7f+UmzVyM3oV/Q197ZVF/ZchTt7kEu7rprx24QWvyjPoM0/xF69A2737e3+s37Ykfjqr78WrYLzaGBGCYzz2jFmAVuYPchaoJ4EHKlhY9UD+3MfwjSVg13NWET+nyMvIkXIbfvWSsKJfvg7C/eYlNF6/97NfUm4Wyc1POZh+5OuecrNIbi7vTYyn03HtIexvvsrX53wu5bUFL/C3PH72k0Dbves739OxPYmfnwD53HBsdl8rBTuWwC0jfjbD1er2QLkFHxLHahmNdX/KjXIbSy+6n6OejMx2Mlafj+RzVuorEr8JJC1WCtZdmeE3FVpoFBrlFhocw62UKTfKbSy96H6OejIy20m49YnVz7NSX5H4kfgFPfja6g5gt/tb2SHdX0Ik7KF7CVFuocMynH2ScotMuYWzjUTjs6xs9yR+JH4kfn62ASs7JImfdS85ys06bK188VJukSk3K9uEE+5tZbsn8fPzpR/KBmelYEkgrFOWlJt12Iayf7nfi3Kj3MbSi+7n6OqNzHbi3t8j/beV+orEj8SPFj8/24CVHdL9JYTffBGF5kVEuYUGx3C/UCm3yJRbuNtJtD3PynZP4ufnSz+UjctKwZJAWKcsKTfrsA1l/3K/F+VGuY2lF93P8UMrMtuJe3+P9N9W6isSPxI/Wvz8bANWdkj3lxB+80UUmhcR5RYaHMP9QqXcIlNu4W4n0fY8K9t9UMQvrnKfVLSX6NIiKCSTfxgAO2CYcyFFX+5jvfRDec4QCMrNPzm5t2vKLTj83PEM12/KjXLzRZ9ST0ZmOwmXHgnXc6zUV0ERv5jCbUpcEqsPC5P/GICAAcNwEz/KzX9ZubZvyi04/FyxDOcx5Ua5+UP8qCcjs72EU6dY+Swr9VVAxG/o7oBUNBcrYQFpYQoOA2AJTK3eKLfg5OTezim30OLpjq9Vvyk3ym08XUs9GZntwyp9MdH3tUJfBUT8njx7rEQFJnGm4DGAogGmVm+UW/Cycm3vlFto8XTF1spjyo1yG0/XUk9GZvuwUmdM5L2t0FcBEb/xOg2vEQEiQASIABEgAkSACNgTARI/e8qFpSICRIAIEAEiQASIQMgRIPELOaS8IREgAkSACBABIkAE7IkAiZ895cJSEQEiQASIABEgAkQg5AiQ+IUcUt6QCBABIkAEiAARIAL2RIDEz55yYamIABEHNkDaAAAAoElEQVQgAkSACBABIhByBEj8Qg4pb0gEiAARIAJEgAgQAXsiQOJnT7mwVESACBABIkAEiAARCDkCJH4hh5Q3JAJEgAgQASJABIiAPREg8bOnXFgqIkAEiAARIAJEgAiEHAESv5BDyhsSASJABIgAESACRMCeCJD42VMuLBURIAJEgAgQASJABEKOAIlfyCHlDYkAESACRIAIEAEiYE8E/n+z3Mrvq9JYRgAAAABJRU5ErkJggg==;" parent="1" vertex="1">
          <mxGeometry x="140" y="140" width="372.56" height="160" as="geometry" />
        </mxCell>
        <mxCell id="5Ma9kp0W-FNyfPUBRZOU-4" value="&lt;div style=&quot;text-align: left&quot;&gt;&lt;b style=&quot;font-size: 14px&quot;&gt;说明：&lt;/b&gt;&lt;/div&gt;&lt;font style=&quot;font-size: 14px&quot;&gt;&lt;div style=&quot;text-align: left&quot;&gt;&lt;span&gt;1. 数据量有 600 万条，说明索引也有 600 万条数据&lt;/span&gt;&lt;/div&gt;&lt;div style=&quot;text-align: left&quot;&gt;&lt;span&gt;2. 因为一个索引的键值对是 1032 B，因此一个节点可以存放 16 * 1024 /1032 ≈ 15 个&amp;nbsp;&lt;/span&gt;&lt;/div&gt;&lt;/font&gt;" style="text;html=1;align=center;verticalAlign=middle;resizable=0;points=[];autosize=1;strokeColor=none;" parent="1" vertex="1">
          <mxGeometry x="150" y="310" width="540" height="50" as="geometry" />
        </mxCell>
        <mxCell id="5Ma9kp0W-FNyfPUBRZOU-5" value="&lt;div style=&quot;text-align: center&quot;&gt;&lt;span&gt;索引：name&lt;/span&gt;&lt;/div&gt;这里的 name 是被用来建立索引的那个字段&lt;br&gt;&lt;div style=&quot;text-align: center&quot;&gt;&lt;span&gt;是一个键值对&lt;/span&gt;&lt;/div&gt;" style="text;html=1;align=left;verticalAlign=middle;resizable=0;points=[];autosize=1;strokeColor=none;" parent="1" vertex="1">
          <mxGeometry x="520" y="120" width="240" height="50" as="geometry" />
        </mxCell>
        <mxCell id="5Ma9kp0W-FNyfPUBRZOU-7" value="键：&lt;br&gt;customer 21" style="rounded=0;whiteSpace=wrap;html=1;" parent="1" vertex="1">
          <mxGeometry x="560" y="180" width="130" height="60" as="geometry" />
        </mxCell>
        <mxCell id="5Ma9kp0W-FNyfPUBRZOU-10" value="值：整条记录&lt;br&gt;（id/id、name、age）" style="rounded=0;whiteSpace=wrap;html=1;" parent="1" vertex="1">
          <mxGeometry x="560" y="240" width="130" height="60" as="geometry" />
        </mxCell>
        <mxCell id="5Ma9kp0W-FNyfPUBRZOU-11" value="8B" style="text;html=1;align=center;verticalAlign=middle;resizable=0;points=[];autosize=1;strokeColor=none;" parent="1" vertex="1">
          <mxGeometry x="725" y="200" width="30" height="20" as="geometry" />
        </mxCell>
        <mxCell id="5Ma9kp0W-FNyfPUBRZOU-12" value="1 KB" style="text;html=1;align=center;verticalAlign=middle;resizable=0;points=[];autosize=1;strokeColor=none;" parent="1" vertex="1">
          <mxGeometry x="725" y="260" width="40" height="20" as="geometry" />
        </mxCell>
        <mxCell id="ERPS8QcTWNY3MBR8i4em-1" value="&lt;ul class=&quot;ul-list&quot; style=&quot;box-sizing: border-box ; margin: 0.8em 0px ; padding-left: 30px ; position: relative ; color: rgb(52 , 73 , 94) ; font-family: &amp;#34;ubuntu&amp;#34; , &amp;#34;source sans pro&amp;#34; , sans-serif ; font-size: 18px ; font-style: normal ; font-weight: normal ; letter-spacing: normal ; text-indent: 0px ; text-transform: none ; word-spacing: 0px ; background-color: rgb(255 , 255 , 255) ; text-decoration: none&quot;&gt;&lt;li class=&quot;md-list-item md-focus-container&quot; style=&quot;box-sizing: border-box ; margin: 0px 0px 0px 2em ; position: relative&quot;&gt;&lt;p class=&quot;md-end-block md-p md-focus&quot; style=&quot;box-sizing: border-box ; line-height: 1.6rem ; margin: 0px 0px 0.5rem ; position: relative ; word-spacing: 0.05rem ; text-indent: 0px&quot;&gt;&lt;span class=&quot;md-plain&quot; style=&quot;box-sizing: border-box ; text-indent: 0px&quot;&gt;非叶子节点冗余了叶子结点中的数据。&lt;/span&gt;&lt;/p&gt;&lt;/li&gt;&lt;li class=&quot;md-list-item&quot; style=&quot;box-sizing: border-box ; margin: 0px 0px 0px 2em ; position: relative&quot;&gt;&lt;p class=&quot;md-end-block md-p&quot; style=&quot;box-sizing: border-box ; line-height: 1.6rem ; margin: 0px 0px 0.5rem ; position: relative ; word-spacing: 0.05rem ; text-indent: 0px&quot;&gt;&lt;span class=&quot;md-plain&quot; style=&quot;box-sizing: border-box ; text-indent: 0px&quot;&gt;叶子节点是从小到大，从左到右排列的&lt;/span&gt;&lt;/p&gt;&lt;/li&gt;&lt;li class=&quot;md-list-item&quot; style=&quot;box-sizing: border-box ; margin: 0px 0px 0px 2em ; position: relative&quot;&gt;&lt;p class=&quot;md-end-block md-p&quot; style=&quot;box-sizing: border-box ; line-height: 1.6rem ; margin: 0px 0px 0.5rem ; position: relative ; word-spacing: 0.05rem ; text-indent: 0px&quot;&gt;&lt;span class=&quot;md-plain&quot; style=&quot;box-sizing: border-box ; text-indent: 0px&quot;&gt;叶子节点中之间提供了指针，提高了区间访问的性能。&lt;/span&gt;&lt;/p&gt;&lt;/li&gt;&lt;/ul&gt;&lt;ul class=&quot;ul-list&quot; style=&quot;box-sizing: border-box ; margin: 0.8em 0px ; padding-left: 30px ; position: relative ; color: rgb(52 , 73 , 94) ; font-family: &amp;#34;ubuntu&amp;#34; , &amp;#34;source sans pro&amp;#34; , sans-serif ; font-size: 18px ; font-style: normal ; font-weight: normal ; letter-spacing: normal ; text-indent: 0px ; text-transform: none ; word-spacing: 0px ; background-color: rgb(255 , 255 , 255) ; text-decoration: none&quot;&gt;&lt;li class=&quot;md-list-item&quot; style=&quot;box-sizing: border-box ; margin: 0px 0px 0px 2em ; position: relative&quot;&gt;&lt;p class=&quot;md-end-block md-p&quot; style=&quot;box-sizing: border-box ; line-height: 1.6rem ; margin: 0px 0px 0.5rem ; position: relative ; word-spacing: 0.05rem ; text-indent: 0px&quot;&gt;&lt;span class=&quot;md-plain&quot; style=&quot;box-sizing: border-box ; text-indent: 0px&quot;&gt;只有叶子节点存放数据，非叶子结点是不存放数据的，只存放键&lt;/span&gt;&lt;/p&gt;&lt;/li&gt;&lt;/ul&gt;" style="text;whiteSpace=wrap;html=1;" vertex="1" parent="1">
          <mxGeometry x="120" y="380" width="550" height="200" as="geometry" />
        </mxCell>
        <mxCell id="ERPS8QcTWNY3MBR8i4em-3" value="" style="shape=image;verticalLabelPosition=bottom;verticalAlign=top;aspect=fixed;imageAspect=0;image=https://i.loli.net/2021/07/30/UXQfz6SmI84W1JL.png;" vertex="1" parent="1">
          <mxGeometry x="70" y="640.5" width="530.29" height="215.18" as="geometry" />
        </mxCell>
        <mxCell id="ERPS8QcTWNY3MBR8i4em-8" value="值：整条记录&lt;br&gt;（id/id、name、&lt;br&gt;age）" style="rounded=0;whiteSpace=wrap;html=1;" vertex="1" parent="1">
          <mxGeometry x="75" y="843.5" width="80" height="60" as="geometry" />
        </mxCell>
        <mxCell id="ERPS8QcTWNY3MBR8i4em-10" value="值：整条记录&lt;br&gt;（id/id、name、&lt;br&gt;age）" style="rounded=0;whiteSpace=wrap;html=1;" vertex="1" parent="1">
          <mxGeometry x="161" y="843.5" width="80" height="60" as="geometry" />
        </mxCell>
        <mxCell id="ERPS8QcTWNY3MBR8i4em-11" value="值：整条记录&lt;br&gt;（id/id、name、&lt;br&gt;age）" style="rounded=0;whiteSpace=wrap;html=1;" vertex="1" parent="1">
          <mxGeometry x="251" y="843.5" width="80" height="60" as="geometry" />
        </mxCell>
        <mxCell id="ERPS8QcTWNY3MBR8i4em-12" value="值：整条记录&lt;br&gt;（id/id、name、&lt;br&gt;age）" style="rounded=0;whiteSpace=wrap;html=1;" vertex="1" parent="1">
          <mxGeometry x="341" y="843.5" width="80" height="60" as="geometry" />
        </mxCell>
        <mxCell id="ERPS8QcTWNY3MBR8i4em-13" value="键：&lt;br&gt;customer 2" style="rounded=0;whiteSpace=wrap;html=1;" vertex="1" parent="1">
          <mxGeometry x="90" y="691.5" width="70" height="35" as="geometry" />
        </mxCell>
        <mxCell id="ERPS8QcTWNY3MBR8i4em-14" value="键：&lt;br&gt;customer 3" style="rounded=0;whiteSpace=wrap;html=1;" vertex="1" parent="1">
          <mxGeometry x="256.28" y="610" width="70" height="35" as="geometry" />
        </mxCell>
        <mxCell id="ERPS8QcTWNY3MBR8i4em-15" value="键：&lt;br&gt;customer 4" style="rounded=0;whiteSpace=wrap;html=1;" vertex="1" parent="1">
          <mxGeometry x="320" y="691.5" width="70" height="35" as="geometry" />
        </mxCell>
        <mxCell id="ERPS8QcTWNY3MBR8i4em-16" value="键：&lt;br&gt;customer 5" style="rounded=0;whiteSpace=wrap;html=1;" vertex="1" parent="1">
          <mxGeometry x="463" y="691.5" width="70" height="35" as="geometry" />
        </mxCell>
        <mxCell id="ERPS8QcTWNY3MBR8i4em-17" value="值：整条记录&lt;br&gt;（id/id、name、&lt;br&gt;age）" style="rounded=0;whiteSpace=wrap;html=1;" vertex="1" parent="1">
          <mxGeometry x="430" y="844.5" width="80" height="60" as="geometry" />
        </mxCell>
        <mxCell id="ERPS8QcTWNY3MBR8i4em-18" value="值：整条记录&lt;br&gt;（id/id、name、&lt;br&gt;age）" style="rounded=0;whiteSpace=wrap;html=1;" vertex="1" parent="1">
          <mxGeometry x="510" y="844.5" width="80" height="60" as="geometry" />
        </mxCell>
        <mxCell id="ERPS8QcTWNY3MBR8i4em-20" value="指针域：6B" style="rounded=0;whiteSpace=wrap;html=1;" vertex="1" parent="1">
          <mxGeometry x="326.28" y="610" width="70" height="35" as="geometry" />
        </mxCell>
        <mxCell id="ERPS8QcTWNY3MBR8i4em-21" value="指针域：6B" style="rounded=0;whiteSpace=wrap;html=1;" vertex="1" parent="1">
          <mxGeometry x="160" y="691.5" width="70" height="35" as="geometry" />
        </mxCell>
        <mxCell id="ERPS8QcTWNY3MBR8i4em-22" value="指针域：6B" style="rounded=0;whiteSpace=wrap;html=1;" vertex="1" parent="1">
          <mxGeometry x="533" y="691.5" width="70" height="35" as="geometry" />
        </mxCell>
        <mxCell id="ERPS8QcTWNY3MBR8i4em-23" value="指针域：6B" style="rounded=0;whiteSpace=wrap;html=1;" vertex="1" parent="1">
          <mxGeometry x="390" y="691.5" width="70" height="35" as="geometry" />
        </mxCell>
        <mxCell id="ERPS8QcTWNY3MBR8i4em-24" value="14B" style="text;html=1;align=center;verticalAlign=middle;resizable=0;points=[];autosize=1;strokeColor=none;" vertex="1" parent="1">
          <mxGeometry x="306.28" y="585" width="40" height="20" as="geometry" />
        </mxCell>
        <mxCell id="ERPS8QcTWNY3MBR8i4em-25" value="通过计算：16 * 1024 /14 = 1170&lt;br&gt;非叶子结点最多存放 1170 个索引建" style="text;html=1;align=center;verticalAlign=middle;resizable=0;points=[];autosize=1;strokeColor=none;" vertex="1" parent="1">
          <mxGeometry x="360" y="580" width="200" height="30" as="geometry" />
        </mxCell>
        <mxCell id="ERPS8QcTWNY3MBR8i4em-26" value="在叶子节点中，一个节点存放的数据大小为 16K，&lt;br&gt;而一个索引的键值对大小为 1032B&amp;nbsp;&lt;br&gt;因此可以存放 15 个索引（键值对）" style="text;html=1;align=left;verticalAlign=middle;resizable=0;points=[];autosize=1;strokeColor=none;" vertex="1" parent="1">
          <mxGeometry x="620" y="805.68" width="280" height="50" as="geometry" />
        </mxCell>
      </root>
    </mxGraphModel>
  </diagram>
</mxfile>
